<?xml version="1.0" standalone="no"?>
<!DOCTYPE svg PUBLIC "-//W3C//DTD SVG 20010904//EN"
 "http://www.w3.org/TR/2001/REC-SVG-20010904/DTD/svg10.dtd">
<svg version="1.0" xmlns="http://www.w3.org/2000/svg"
 width="527.000000pt" height="343.000000pt" viewBox="0 0 527.000000 343.000000"
 preserveAspectRatio="xMidYMid meet">
<metadata>
Created by potrace 1.16, written by Peter Selinger 2001-2019
</metadata>
<g transform="translate(0.000000,343.000000) scale(0.100000,-0.100000)"
fill="#000000" stroke="none">
<path d="M2193 3229 l37 -30 0 -569 0 -568 -35 -31 -36 -31 191 0 190 0 -35
33 -36 32 3 360 3 360 160 -288 c142 -258 161 -286 173 -270 7 10 81 141 165
292 l152 274 3 -398 2 -397 30 -38 c40 -51 76 -125 95 -195 19 -76 19 -214 0
-289 -9 -33 -14 -61 -12 -63 7 -6 84 118 106 170 21 48 21 64 21 830 1 833 -2
795 50 830 24 17 19 17 -143 15 l-169 -3 -150 -270 c-82 -148 -153 -273 -157
-277 -4 -4 -76 118 -161 272 l-155 280 -165 0 -165 0 38 -31z"/>
<path d="M1338 1062 c10 -7 12 -66 10 -270 l-3 -262 60 0 60 0 -5 165 c-3 91
-2 165 1 165 3 0 34 -52 69 -115 35 -63 66 -115 70 -115 4 0 35 52 70 115 35
63 67 115 71 115 4 0 7 -75 8 -166 0 -146 2 -169 20 -197 28 -47 44 -116 37
-164 -7 -51 -2 -54 19 -13 13 24 15 84 15 370 0 216 4 348 10 361 10 18 7 19
-52 19 l-63 0 -65 -120 c-36 -66 -67 -120 -70 -120 -3 0 -34 53 -70 118 l-66
117 -69 3 c-41 1 -65 -1 -57 -6z"/>
<path d="M1944 1054 c14 -13 16 -50 16 -250 0 -143 -4 -243 -10 -255 -10 -18
-7 -19 55 -19 62 0 65 1 55 19 -6 12 -10 112 -10 255 0 200 2 237 16 250 14
15 8 16 -61 16 -69 0 -75 -1 -61 -16z"/>
<path d="M2222 1053 c-19 -9 -44 -32 -58 -52 -23 -34 -24 -42 -24 -201 0 -147
2 -169 20 -198 76 -124 280 -75 280 68 0 35 0 35 -45 35 -34 0 -45 -4 -45 -15
0 -29 -30 -60 -59 -60 -47 0 -51 13 -51 166 0 116 3 145 16 158 31 31 79 13
89 -34 6 -28 10 -30 51 -30 l44 0 0 39 c0 102 -122 172 -218 124z"/>
<path d="M2509 1056 c12 -15 18 -497 6 -516 -4 -6 20 -10 61 -10 56 0 65 2 55
14 -8 9 -11 47 -9 107 l3 94 60 0 60 0 3 -94 c2 -60 -1 -98 -9 -107 -10 -12
-1 -14 52 -14 l64 0 -3 256 c-2 183 1 260 9 270 10 12 0 14 -60 14 -68 0 -71
-1 -61 -19 5 -11 10 -60 10 -110 l0 -91 -65 0 -65 0 0 98 c0 63 4 102 12 110
9 9 -4 12 -61 12 -62 0 -72 -2 -62 -14z"/>
<path d="M2939 1056 c8 -10 11 -87 9 -270 l-3 -256 65 0 c50 0 61 3 52 12 -16
16 -17 480 -2 509 10 18 7 19 -61 19 -60 0 -70 -2 -60 -14z"/>
<path d="M3220 1051 c-19 -10 -45 -33 -57 -51 -22 -31 -23 -43 -23 -199 0
-148 2 -170 20 -199 76 -124 280 -75 280 68 l0 35 -50 -3 c-44 -4 -50 -7 -50
-26 0 -50 -67 -65 -96 -22 -13 21 -15 49 -12 156 3 117 5 133 22 146 40 28 86
6 86 -42 0 -22 4 -24 50 -24 50 0 50 0 50 33 0 106 -125 179 -220 128z"/>
<path d="M3508 1058 c18 -18 17 -514 0 -521 -7 -3 21 -6 62 -6 57 -1 71 2 62
11 -19 19 -16 192 3 208 9 7 17 11 19 9 10 -11 110 -215 108 -221 -1 -5 27 -8
62 -8 l65 0 -44 79 c-102 185 -127 242 -113 259 7 10 42 53 79 97 92 113 91
105 10 105 -39 0 -70 -3 -68 -8 1 -4 -27 -43 -63 -86 l-65 -79 -3 72 c-2 45 2
78 9 87 10 12 0 14 -62 14 -57 0 -70 -3 -61 -12z"/>
<path d="M4044 1056 c-17 -8 -44 -31 -60 -52 l-29 -37 0 -168 c0 -154 2 -170
21 -196 73 -98 214 -99 274 -1 18 29 20 51 20 199 0 156 -1 168 -22 199 -44
63 -132 87 -204 56z m107 -96 c17 -10 19 -23 19 -158 0 -162 -3 -172 -56 -172
-55 0 -64 25 -64 170 0 97 3 131 16 148 16 24 53 29 85 12z"/>
</g>
</svg>
